<svg width="318" height="68" viewBox="0 0 318 68" fill="none" xmlns="http://www.w3.org/2000/svg">
<mask id="mask0_3089_986" style="mask-type:luminance" maskUnits="userSpaceOnUse" x="0" y="1" width="58" height="67">
<path d="M0 1H57.35V67.8789H0V1Z" fill="white"/>
</mask>
<g mask="url(#mask0_3089_986)">
<path fill-rule="evenodd" clip-rule="evenodd" d="M28.467 54.456C29.773 54.774 31.131 54.935 32.54 54.935C35.416 54.935 37.963 54.336 40.181 53.137C42.398 51.938 44.225 50.261 45.664 48.102L57.35 56.822C54.653 60.598 51.238 63.384 47.102 65.182C42.967 66.979 38.711 67.879 34.338 67.879C29.363 67.879 24.779 67.1 20.585 65.541C16.389 63.984 12.764 61.752 9.708 58.845C6.652 55.938 4.269 52.418 2.562 48.283C0.854 44.147 0 39.534 0 34.439C0 29.347 0.854 24.731 2.562 20.596C4.269 16.461 6.652 12.942 9.708 10.034C12.764 7.128 16.389 4.896 20.585 3.337C24.779 1.779 29.363 1 34.338 1C36.135 1 38.009 1.166 39.956 1.494C41.903 1.825 43.821 2.349 45.709 3.068C47.597 3.787 49.409 4.746 51.147 5.944C52.885 7.143 54.443 8.611 55.822 10.349L45.035 19.158C43.655 17.481 41.964 16.191 39.956 15.292C37.947 14.393 35.626 13.944 32.989 13.944C30.352 13.944 27.911 14.455 25.663 15.473C23.416 16.492 21.468 17.915 19.821 19.743C18.172 21.571 16.884 23.743 15.955 26.26C15.025 28.776 14.562 31.504 14.562 34.439C14.562 37.436 15.025 40.179 15.955 42.665C16.884 45.152 18.158 47.31 19.775 49.137C20.961 50.476 22.299 51.599 23.79 52.503C24.173 52.734 24.566 52.953 24.968 53.156" fill="#00C8CF"/>
</g>
<path fill-rule="evenodd" clip-rule="evenodd" d="M95.0585 2.61804H110.319V15.023H92.1615V66.261H78.1385V15.023H59.9795V2.61804H92.0135" fill="#00C8CF"/>
<mask id="mask1_3089_986" style="mask-type:luminance" maskUnits="userSpaceOnUse" x="110" y="0" width="70" height="68">
<path d="M110.407 0.999878H179.083V67.8787H110.407V0.999878Z" fill="white"/>
</mask>
<g mask="url(#mask1_3089_986)">
<path fill-rule="evenodd" clip-rule="evenodd" d="M160.767 47.5116C161.367 46.9416 161.479 46.7616 161.992 46.1176C162.287 45.7466 162.568 45.3636 162.834 44.9666C162.993 44.7326 163.145 44.4926 163.293 44.2486C163.782 43.4446 164.215 42.5916 164.593 41.6926C165.612 39.2656 166.122 36.5526 166.122 33.5566C166.122 30.5606 165.612 27.8496 164.593 25.4226C163.574 22.9956 162.151 20.9116 160.324 19.1756C158.496 17.4356 156.324 16.1026 153.807 15.1746C151.29 14.2446 148.562 13.7816 145.627 13.7816C142.629 13.7816 139.888 14.2446 137.401 15.1746C134.914 16.1026 132.757 17.4356 130.93 19.1756C129.101 20.9116 127.678 22.9956 126.66 25.4226C125.64 27.8496 125.132 30.5606 125.132 33.5566C125.132 36.5526 125.64 39.2656 126.66 41.6926C127.678 44.1196 129.101 46.2006 130.93 47.9396C132.757 49.6776 134.914 51.0096 137.401 51.9396C139.888 52.8686 142.629 53.3336 145.627 53.3336C147.554 53.3336 149.392 53.1326 151.139 52.7326L161.471 58.4926L160.767 47.5116ZM110.407 34.4386C110.407 29.3466 111.262 24.7306 112.969 20.5956C114.677 16.4616 117.059 12.9416 120.116 10.0336C123.172 7.12763 126.797 4.89663 130.993 3.33763C135.186 1.77963 139.771 0.999634 144.745 0.999634C149.719 0.999634 154.303 1.77963 158.499 3.33763C162.693 4.89663 166.319 7.12763 169.375 10.0336C172.432 12.9416 174.814 16.4616 176.522 20.5956C178.23 24.7306 179.083 29.3466 179.083 34.4386C179.083 39.5336 178.23 44.1476 176.522 48.2826C174.814 52.4176 172.432 55.9386 169.375 58.8446C166.319 61.7516 162.693 63.9846 158.499 65.5406C154.303 67.0996 149.719 67.8786 144.745 67.8786C139.771 67.8786 135.186 67.0996 130.993 65.5406C126.797 63.9846 123.172 61.7516 120.116 58.8446C117.059 55.9386 114.677 52.4176 112.969 48.2826C111.262 44.1476 110.407 39.5336 110.407 34.4386Z" fill="#00C8CF"/>
</g>
<path fill-rule="evenodd" clip-rule="evenodd" d="M202.904 54.7549C202.904 57.4509 204.342 58.0799 206.5 58.0799H210.275V66.2609H206.5C195.353 66.2609 194.006 63.5639 194.006 54.7549V27.8769H186.633V20.7759H194.006V12.3259L202.904 8.72986V20.7759H210.275V27.8769H202.904V54.7549Z" fill="#FFA000"/>
<path fill-rule="evenodd" clip-rule="evenodd" d="M244.973 46.8437V42.7987C239.31 46.5737 223.758 42.5297 223.758 53.4957C223.758 64.8227 244.973 64.3727 244.973 46.8437ZM254.051 38.6637V66.2607H244.973V58.5307C237.783 71.6547 214.229 68.8667 214.229 53.4957C214.229 32.7317 244.973 44.5967 244.973 36.1467C244.973 30.6637 239.76 28.4157 234.906 28.4157C230.41 28.4157 225.285 29.4057 224.117 36.5057L216.027 34.9777C217.555 24.3707 226.186 20.9547 234.906 21.0447C244.524 21.1347 254.051 25.1797 254.051 38.6637Z" fill="#FFA000"/>
<mask id="mask2_3089_986" style="mask-type:luminance" maskUnits="userSpaceOnUse" x="0" y="0" width="318" height="68">
<path d="M0 67.8789H317.603V0.999878H0V67.8789Z" fill="white"/>
</mask>
<g mask="url(#mask2_3089_986)">
<path fill-rule="evenodd" clip-rule="evenodd" d="M261.242 66.2609H270.141V3.33594H261.242V66.2609Z" fill="#FFA000"/>
</g>
<mask id="mask3_3089_986" style="mask-type:luminance" maskUnits="userSpaceOnUse" x="0" y="0" width="318" height="68">
<path d="M0 67.8789H317.603V0.999878H0V67.8789Z" fill="white"/>
</mask>
<g mask="url(#mask3_3089_986)">
<path fill-rule="evenodd" clip-rule="evenodd" d="M317.512 66.1699H307.355L292.163 46.4839L286.769 52.1479V66.2609H277.781V3.33594H286.769V41.2709L305.377 21.3149H316.163L297.825 40.5519L317.512 66.1699Z" fill="#FFA000"/>
</g>
<mask id="mask4_3089_986" style="mask-type:luminance" maskUnits="userSpaceOnUse" x="0" y="0" width="318" height="68">
<path d="M0 67.8789H317.603V0.999878H0V67.8789Z" fill="white"/>
</mask>
<g mask="url(#mask4_3089_986)">
<path fill-rule="evenodd" clip-rule="evenodd" d="M160.337 27.2085C159.56 25.3585 158.515 23.8245 157.143 22.5205C155.762 21.2065 154.149 20.2195 152.209 19.5045C150.218 18.7695 148.004 18.3965 145.627 18.3965C143.194 18.3965 140.971 18.7675 139.018 19.4975C137.099 20.2135 135.495 21.2015 134.112 22.5185C132.735 23.8255 131.691 25.3575 130.916 27.2075C130.14 29.0545 129.747 31.1895 129.747 33.5575C129.747 35.9255 130.14 38.0605 130.915 39.9045C131.691 41.7545 132.735 43.2885 134.109 44.5945C135.493 45.9115 137.099 46.8995 139.017 47.6165C140.974 48.3475 143.197 48.7185 145.627 48.7185C147.198 48.7185 148.706 48.5555 150.108 48.2345L150.881 48.0565L156.801 51.4395V44.9155L157.586 44.1675C157.848 43.9175 157.854 43.9115 158.144 43.5415L158.379 43.2455C158.597 42.9705 158.808 42.6825 159.005 42.3895C159.122 42.2155 159.238 42.0355 159.348 41.8535C159.717 41.2475 160.05 40.5915 160.338 39.9055C161.113 38.0575 161.507 35.9205 161.507 33.5575C161.507 31.1935 161.113 29.0575 160.337 27.2085Z" fill="#FFA000"/>
</g>
</svg>
