<svg width="50" height="53" viewBox="0 0 50 53" fill="none" xmlns="http://www.w3.org/2000/svg">
<path d="M17.0606 2.89512C17.6706 1.69266 19.3882 1.69265 19.9982 2.89512L24.5225 11.8127C24.6808 12.1246 24.9342 12.378 25.2462 12.5363L34.1637 17.0606C35.3662 17.6706 35.3662 19.3882 34.1637 19.9982L25.2462 24.5225C24.9342 24.6808 24.6808 24.9342 24.5225 25.2462L19.9982 34.1637C19.3882 35.3662 17.6706 35.3662 17.0606 34.1637L12.5363 25.2462C12.378 24.9342 12.1246 24.6808 11.8127 24.5225L2.89512 19.9982C1.69266 19.3882 1.69265 17.6706 2.89512 17.0606L11.8127 12.5363C12.1246 12.378 12.378 12.1246 12.5363 11.8127L17.0606 2.89512Z" fill="#1CABEE"/>
<path d="M35.8841 30.8951C36.4942 29.6927 38.2117 29.6927 38.8218 30.8951L41.2672 35.7151C41.4254 36.027 41.6789 36.2805 41.9908 36.4387L46.8108 38.8841C48.0132 39.4942 48.0132 41.2117 46.8108 41.8218L41.9908 44.2672C41.6789 44.4254 41.4254 44.6789 41.2672 44.9908L38.8218 49.8108C38.2117 51.0132 36.4942 51.0132 35.8841 49.8108L33.4387 44.9908C33.2805 44.6789 33.027 44.4254 32.7151 44.2672L27.8951 41.8218C26.6927 41.2117 26.6927 39.4942 27.8951 38.8841L32.7151 36.4387C33.027 36.2805 33.2805 36.027 33.4387 35.7151L35.8841 30.8951Z" fill="#1CABEE"/>
</svg>
