<svg width="100" height="100" viewBox="0 0 428 428" fill="none" xmlns="http://www.w3.org/2000/svg">
<g filter="url(#filter0_f_3079_1650)">
<path d="M207.261 69.3084C208.159 61.2715 219.841 61.2715 220.739 69.3084V69.3084C221.557 76.6272 231.814 77.5777 233.963 70.5338V70.5338C236.323 62.7987 247.805 64.9452 247.211 73.0103V73.0103C246.67 80.3548 256.579 83.174 259.985 76.6448V76.6448C263.726 69.475 274.618 73.6948 272.552 81.5134V81.5134C270.671 88.6334 279.893 93.2253 284.441 87.4332V87.4332C289.435 81.0729 299.367 87.2223 295.9 94.5282V94.5282C292.742 101.181 300.963 107.39 306.498 102.532V102.532C312.576 97.1974 321.209 105.067 316.458 111.611V111.611C312.132 117.571 319.072 125.184 325.405 121.426V121.426C332.36 117.3 339.4 126.621 333.527 132.181V132.181C328.18 137.245 333.603 146.003 340.519 143.473V143.473C348.114 140.695 353.32 151.151 346.526 155.538V155.538C340.339 159.532 344.061 169.138 351.324 167.922V167.922C359.3 166.586 362.497 177.822 355.012 180.885V180.885C348.197 183.674 350.09 193.801 357.453 193.94V193.94C365.538 194.092 366.616 205.724 358.696 207.36V207.36C351.484 208.849 351.484 219.151 358.696 220.64V220.64C366.616 222.276 365.538 233.908 357.453 234.06V234.06C350.09 234.199 348.197 244.326 355.012 247.115V247.115C362.497 250.178 359.3 261.414 351.324 260.078V260.078C344.061 258.862 340.339 268.468 346.526 272.462V272.462C353.32 276.849 348.114 287.305 340.519 284.527V284.527C333.603 281.997 328.18 290.755 333.527 295.819V295.819C339.4 301.379 332.36 310.7 325.405 306.574V306.574C319.072 302.816 312.132 310.429 316.458 316.389V316.389C321.209 322.933 312.576 330.803 306.498 325.468V325.468C300.963 320.61 292.742 326.819 295.9 333.472V333.472C299.367 340.778 289.435 346.927 284.441 340.567V340.567C279.893 334.775 270.671 339.367 272.552 346.487V346.487C274.618 354.305 263.726 358.525 259.985 351.355V351.355C256.579 344.826 246.67 347.645 247.211 354.99V354.99C247.805 363.055 236.323 365.201 233.963 357.466V357.466C231.814 350.422 221.557 351.373 220.739 358.692V358.692C219.841 366.729 208.159 366.729 207.261 358.692V358.692C206.443 351.373 196.186 350.422 194.037 357.466V357.466C191.677 365.201 180.195 363.055 180.789 354.99V354.99C181.33 347.645 171.421 344.826 168.015 351.355V351.355C164.274 358.525 153.382 354.305 155.448 346.487V346.487C157.329 339.367 148.107 334.775 143.559 340.567V340.567C138.565 346.927 128.633 340.778 132.1 333.472V333.472C135.258 326.819 127.037 320.611 121.502 325.468V325.468C115.424 330.803 106.791 322.933 111.542 316.389V316.389C115.868 310.429 108.928 302.816 102.595 306.574V306.574C95.6398 310.7 88.6002 301.379 94.4726 295.819V295.819C99.8203 290.755 94.3971 281.997 87.4811 284.527V284.527C79.8864 287.305 74.6796 276.849 81.4737 272.462V272.462C87.6607 268.468 83.9393 258.862 76.676 260.078V260.078C68.7002 261.414 65.5034 250.178 72.9878 247.115V247.115C79.8034 244.326 77.9105 234.199 70.5474 234.06V234.06C62.4619 233.908 61.3841 222.276 69.3038 220.64V220.64C76.516 219.151 76.516 208.849 69.3038 207.36V207.36C61.3841 205.724 62.4619 194.092 70.5474 193.94V193.94C77.9105 193.801 79.8034 183.674 72.9878 180.885V180.885C65.5034 177.822 68.7002 166.586 76.676 167.922V167.922C83.9393 169.138 87.6607 159.532 81.4737 155.538V155.538C74.6796 151.151 79.8864 140.695 87.4811 143.473V143.473C94.3972 146.003 99.8203 137.245 94.4726 132.181V132.181C88.6002 126.621 95.6398 117.3 102.595 121.426V121.426C108.928 125.184 115.868 117.571 111.542 111.611V111.611C106.791 105.067 115.424 97.1974 121.502 102.532V102.532C127.037 107.39 135.258 101.181 132.1 94.5282V94.5282C128.633 87.2223 138.565 81.0729 143.559 87.4332V87.4332C148.107 93.2253 157.329 88.6334 155.448 81.5134V81.5134C153.382 73.6948 164.274 69.475 168.015 76.6448V76.6448C171.421 83.174 181.33 80.3547 180.789 73.0103V73.0103C180.195 64.9452 191.677 62.7987 194.037 70.5338V70.5338C196.186 77.5777 206.443 76.6272 207.261 69.3084V69.3084Z" fill="url(#paint0_linear_3079_1650)"/>
</g>
<defs>
<filter id="filter0_f_3079_1650" x="0.892578" y="0.280762" width="426.215" height="427.438" filterUnits="userSpaceOnUse" color-interpolation-filters="sRGB">
<feFlood flood-opacity="0" result="BackgroundImageFix"/>
<feBlend mode="normal" in="SourceGraphic" in2="BackgroundImageFix" result="shape"/>
<feGaussianBlur stdDeviation="31.5" result="effect1_foregroundBlur_3079_1650"/>
</filter>
<linearGradient id="paint0_linear_3079_1650" x1="65.3658" y1="164.556" x2="391.848" y2="250.107" gradientUnits="userSpaceOnUse">
<stop stop-color="#FFD400"/>
<stop offset="0.233976" stop-color="#FFD204"/>
<stop offset="0.731744" stop-color="#0CA8FE"/>
<stop offset="0.990098" stop-color="#0CA9FF"/>
</linearGradient>
</defs>
</svg>
