<svg width="401" height="300" viewBox="0 0 401 300" fill="none" xmlns="http://www.w3.org/2000/svg">
<circle cx="52.5978" cy="146.864" r="52.5978" fill="white"/>
<path d="M52.8037 129.606V164.534" stroke="#1385EA" stroke-width="8.73205" stroke-linecap="round"/>
<path d="M35.3398 147.07L70.268 147.07" stroke="#1385EA" stroke-width="8.73205" stroke-linecap="round"/>
<rect x="53" width="257.774" height="77.0489" rx="38.5244" fill="#1385EA"/>
<path d="M110.619 50.0244V26.9817H114.437V50.0244H110.619ZM113.779 40.4123V36.923H123.424V40.4123H113.779ZM113.779 30.471V26.9817H124.938V30.471H113.779ZM127.927 50.0244L127.96 33.5653H131.614L131.581 50.0244H127.927ZM129.771 30.4381C129.178 30.4381 128.663 30.2296 128.224 29.8127C127.807 29.3738 127.598 28.858 127.598 28.2655C127.598 27.673 127.807 27.1682 128.224 26.7513C128.663 26.3343 129.178 26.1258 129.771 26.1258C130.363 26.1258 130.868 26.3343 131.285 26.7513C131.724 27.1682 131.943 27.673 131.943 28.2655C131.943 28.858 131.724 29.3738 131.285 29.8127C130.868 30.2296 130.363 30.4381 129.771 30.4381ZM135.597 50.0244V33.5653H139.054L139.284 36.5938V50.0244H135.597ZM146.757 50.0244V41.5974L150.443 40.6098V50.0244H146.757ZM146.757 41.5974C146.757 40.2806 146.603 39.2712 146.296 38.5689C146.01 37.8447 145.594 37.34 145.045 37.0547C144.518 36.7694 143.893 36.6267 143.169 36.6267C141.94 36.6048 140.985 37.0108 140.305 37.8447C139.624 38.6786 139.284 39.8747 139.284 41.4328H137.902C137.902 39.6991 138.154 38.2178 138.659 36.9888C139.163 35.7379 139.888 34.7943 140.831 34.1579C141.775 33.4995 142.894 33.1703 144.189 33.1703C146.186 33.1703 147.722 33.7848 148.798 35.0137C149.895 36.2207 150.443 38.0861 150.443 40.6098L146.757 41.5974ZM165.732 50.0244L165.568 46.963V26.9817H169.222V50.0244H165.732ZM160.367 50.4194C158.874 50.4194 157.569 50.0683 156.449 49.3661C155.352 48.6419 154.485 47.6324 153.849 46.3376C153.234 45.0428 152.927 43.5286 152.927 41.7949C152.927 40.0392 153.234 38.525 153.849 37.2522C154.485 35.9574 155.352 34.9589 156.449 34.2566C157.569 33.5324 158.874 33.1703 160.367 33.1703C161.749 33.1703 162.934 33.5324 163.922 34.2566C164.931 34.9589 165.699 35.9574 166.226 37.2522C166.753 38.525 167.016 40.0392 167.016 41.7949C167.016 43.5286 166.753 45.0428 166.226 46.3376C165.699 47.6324 164.931 48.6419 163.922 49.3661C162.934 50.0683 161.749 50.4194 160.367 50.4194ZM161.288 47.0618C162.122 47.0618 162.858 46.8423 163.494 46.4034C164.152 45.9426 164.657 45.3171 165.008 44.5271C165.381 43.737 165.568 42.8263 165.568 41.7949C165.568 40.7634 165.381 39.8527 165.008 39.0627C164.657 38.2726 164.152 37.6582 163.494 37.2193C162.858 36.7803 162.111 36.5609 161.256 36.5609C160.378 36.5609 159.599 36.7803 158.918 37.2193C158.238 37.6582 157.7 38.2726 157.305 39.0627C156.932 39.8527 156.735 40.7634 156.713 41.7949C156.735 42.8263 156.932 43.737 157.305 44.5271C157.7 45.3171 158.238 45.9426 158.918 46.4034C159.621 46.8423 160.411 47.0618 161.288 47.0618ZM180.579 50.0244V26.9817H184.266V50.0244H180.579ZM195.371 50.4194C193.769 50.4194 192.342 50.0573 191.091 49.3331C189.862 48.587 188.886 47.5665 188.161 46.2717C187.459 44.977 187.108 43.4847 187.108 41.7949C187.108 40.1051 187.47 38.6128 188.194 37.318C188.919 36.0232 189.906 35.0137 191.157 34.2895C192.43 33.5434 193.878 33.1703 195.502 33.1703C196.973 33.1703 198.289 33.5544 199.452 34.3225C200.637 35.0686 201.581 36.1549 202.283 37.5814C202.986 39.0078 203.337 40.7086 203.337 42.6837H199.617C199.617 41.2572 199.441 40.0831 199.09 39.1614C198.761 38.2397 198.278 37.5594 197.642 37.1205C197.027 36.6596 196.27 36.4292 195.371 36.4292C194.427 36.4292 193.615 36.6377 192.935 37.0547C192.254 37.4716 191.739 38.0861 191.387 38.8981C191.036 39.6881 190.861 40.6866 190.861 41.8936C190.861 42.969 191.069 43.8907 191.486 44.6588C191.925 45.4268 192.507 46.0194 193.231 46.4363C193.977 46.8314 194.8 47.0289 195.7 47.0289C196.687 47.0289 197.499 46.8094 198.136 46.3705C198.772 45.9096 199.266 45.3281 199.617 44.6258L203.008 46.0742C202.547 46.9521 201.954 47.7201 201.23 48.3785C200.528 49.0369 199.683 49.5416 198.695 49.8927C197.73 50.2439 196.621 50.4194 195.371 50.4194ZM189.544 42.6837V39.754H201.395V42.6837H189.544ZM215.806 50.0244L215.641 46.9301V41.5645C215.641 40.4452 215.52 39.5126 215.279 38.7664C215.037 38.0203 214.653 37.4497 214.127 37.0547C213.622 36.6596 212.953 36.4621 212.119 36.4621C211.351 36.4621 210.67 36.6267 210.078 36.9559C209.485 37.2851 208.991 37.7898 208.596 38.4701L205.239 37.2851C205.612 36.5609 206.095 35.8806 206.687 35.2442C207.28 34.6077 208.026 34.103 208.926 33.7299C209.847 33.3569 210.934 33.1703 212.185 33.1703C213.787 33.1703 215.114 33.4666 216.168 34.0591C217.243 34.6516 218.044 35.5295 218.571 36.6926C219.097 37.8557 219.361 39.2931 219.361 41.0048L219.262 50.0244H215.806ZM211.131 50.4194C209.156 50.4194 207.62 49.9805 206.523 49.1027C205.447 48.2249 204.91 46.985 204.91 45.383C204.91 43.6712 205.48 42.3655 206.621 41.4657C207.784 40.5659 209.397 40.1161 211.46 40.1161H215.871V42.947H212.645C211.175 42.947 210.144 43.1555 209.551 43.5725C208.959 43.9675 208.662 44.5381 208.662 45.2842C208.662 45.9206 208.915 46.4254 209.419 46.7984C209.946 47.1496 210.67 47.3251 211.592 47.3251C212.404 47.3251 213.106 47.1386 213.699 46.7655C214.313 46.3705 214.785 45.8658 215.114 45.2513C215.465 44.6149 215.641 43.9346 215.641 43.2104H216.991C216.991 45.4488 216.508 47.2154 215.542 48.5102C214.599 49.783 213.128 50.4194 211.131 50.4194ZM234.648 50.0244L234.484 46.963V26.9817H238.138V50.0244H234.648ZM229.283 50.4194C227.79 50.4194 226.485 50.0683 225.365 49.3661C224.268 48.6419 223.401 47.6324 222.765 46.3376C222.15 45.0428 221.843 43.5286 221.843 41.7949C221.843 40.0392 222.15 38.525 222.765 37.2522C223.401 35.9574 224.268 34.9589 225.365 34.2566C226.485 33.5324 227.79 33.1703 229.283 33.1703C230.665 33.1703 231.85 33.5324 232.838 34.2566C233.847 34.9589 234.615 35.9574 235.142 37.2522C235.669 38.525 235.932 40.0392 235.932 41.7949C235.932 43.5286 235.669 45.0428 235.142 46.3376C234.615 47.6324 233.847 48.6419 232.838 49.3661C231.85 50.0683 230.665 50.4194 229.283 50.4194ZM230.204 47.0618C231.038 47.0618 231.773 46.8423 232.41 46.4034C233.068 45.9426 233.573 45.3171 233.924 44.5271C234.297 43.737 234.484 42.8263 234.484 41.7949C234.484 40.7634 234.297 39.8527 233.924 39.0627C233.573 38.2726 233.068 37.6582 232.41 37.2193C231.773 36.7803 231.027 36.5609 230.171 36.5609C229.294 36.5609 228.515 36.7803 227.834 37.2193C227.154 37.6582 226.616 38.2726 226.221 39.0627C225.848 39.8527 225.651 40.7634 225.629 41.7949C225.651 42.8263 225.848 43.737 226.221 44.5271C226.616 45.3171 227.154 45.9426 227.834 46.4034C228.537 46.8423 229.327 47.0618 230.204 47.0618ZM247.876 50.4194C246.778 50.4194 245.769 50.2548 244.847 49.9257C243.925 49.5965 243.135 49.1356 242.477 48.5431C241.819 47.9286 241.314 47.2154 240.963 46.4034L244.156 44.9879C244.485 45.6024 244.968 46.1181 245.604 46.5351C246.263 46.9521 246.987 47.1605 247.777 47.1605C248.633 47.1605 249.313 47.0179 249.818 46.7326C250.344 46.4254 250.608 46.0084 250.608 45.4817C250.608 44.977 250.41 44.5929 250.015 44.3296C249.62 44.0443 249.061 43.8139 248.336 43.6383L246.789 43.2104C245.231 42.8153 244.013 42.1899 243.135 41.334C242.257 40.4562 241.819 39.4577 241.819 38.3385C241.819 36.6926 242.345 35.4197 243.399 34.52C244.474 33.6202 246.01 33.1703 248.007 33.1703C249.017 33.1703 249.938 33.3239 250.772 33.6312C251.628 33.9165 252.363 34.3334 252.978 34.8821C253.592 35.4088 254.02 36.0342 254.262 36.7584L251.2 38.141C250.981 37.5923 250.564 37.1754 249.949 36.8901C249.335 36.5828 248.655 36.4292 247.908 36.4292C247.162 36.4292 246.581 36.5938 246.164 36.923C245.747 37.2302 245.538 37.6691 245.538 38.2397C245.538 38.5689 245.725 38.8761 246.098 39.1614C246.471 39.4248 247.009 39.6442 247.711 39.8198L249.653 40.2806C250.728 40.544 251.606 40.961 252.287 41.5315C252.967 42.0802 253.472 42.7056 253.801 43.4079C254.13 44.0882 254.295 44.7795 254.295 45.4817C254.295 46.4693 254.009 47.3361 253.439 48.0822C252.89 48.8284 252.133 49.4099 251.167 49.8269C250.202 50.2219 249.104 50.4194 247.876 50.4194Z" fill="white"/>
<rect x="143" y="110" width="257.774" height="77.0489" rx="38.5244" fill="#1385EA"/>
<path d="M190.619 160.024V136.982H194.437V160.024H190.619ZM193.779 150.412V146.923H203.424V150.412H193.779ZM193.779 140.471V136.982H204.938V140.471H193.779ZM207.927 160.024L207.96 143.565H211.614L211.581 160.024H207.927ZM209.771 140.438C209.178 140.438 208.663 140.23 208.224 139.813C207.807 139.374 207.598 138.858 207.598 138.266C207.598 137.673 207.807 137.168 208.224 136.751C208.663 136.334 209.178 136.126 209.771 136.126C210.363 136.126 210.868 136.334 211.285 136.751C211.724 137.168 211.943 137.673 211.943 138.266C211.943 138.858 211.724 139.374 211.285 139.813C210.868 140.23 210.363 140.438 209.771 140.438ZM215.597 160.024V143.565H219.054L219.284 146.594V160.024H215.597ZM226.757 160.024V151.597L230.443 150.61V160.024H226.757ZM226.757 151.597C226.757 150.281 226.603 149.271 226.296 148.569C226.01 147.845 225.594 147.34 225.045 147.055C224.518 146.769 223.893 146.627 223.169 146.627C221.94 146.605 220.985 147.011 220.305 147.845C219.624 148.679 219.284 149.875 219.284 151.433H217.902C217.902 149.699 218.154 148.218 218.659 146.989C219.163 145.738 219.888 144.794 220.831 144.158C221.775 143.5 222.894 143.17 224.189 143.17C226.186 143.17 227.722 143.785 228.798 145.014C229.895 146.221 230.443 148.086 230.443 150.61L226.757 151.597ZM245.732 160.024L245.568 156.963V136.982H249.222V160.024H245.732ZM240.367 160.419C238.874 160.419 237.569 160.068 236.449 159.366C235.352 158.642 234.485 157.632 233.849 156.338C233.234 155.043 232.927 153.529 232.927 151.795C232.927 150.039 233.234 148.525 233.849 147.252C234.485 145.957 235.352 144.959 236.449 144.257C237.569 143.532 238.874 143.17 240.367 143.17C241.749 143.17 242.934 143.532 243.922 144.257C244.931 144.959 245.699 145.957 246.226 147.252C246.753 148.525 247.016 150.039 247.016 151.795C247.016 153.529 246.753 155.043 246.226 156.338C245.699 157.632 244.931 158.642 243.922 159.366C242.934 160.068 241.749 160.419 240.367 160.419ZM241.288 157.062C242.122 157.062 242.858 156.842 243.494 156.403C244.152 155.943 244.657 155.317 245.008 154.527C245.381 153.737 245.568 152.826 245.568 151.795C245.568 150.763 245.381 149.853 245.008 149.063C244.657 148.273 244.152 147.658 243.494 147.219C242.858 146.78 242.111 146.561 241.256 146.561C240.378 146.561 239.599 146.78 238.918 147.219C238.238 147.658 237.7 148.273 237.305 149.063C236.932 149.853 236.735 150.763 236.713 151.795C236.735 152.826 236.932 153.737 237.305 154.527C237.7 155.317 238.238 155.943 238.918 156.403C239.621 156.842 240.411 157.062 241.288 157.062ZM268.282 160.419C266.593 160.419 265.1 160.057 263.805 159.333C262.511 158.587 261.49 157.567 260.744 156.272C260.02 154.977 259.658 153.485 259.658 151.795C259.658 150.105 260.02 148.613 260.744 147.318C261.49 146.023 262.5 145.014 263.773 144.29C265.067 143.543 266.549 143.17 268.217 143.17C269.84 143.17 271.311 143.565 272.628 144.355C273.944 145.123 274.921 146.232 275.557 147.68L272.134 148.997C271.783 148.273 271.245 147.691 270.521 147.252C269.797 146.813 268.974 146.594 268.052 146.594C267.152 146.594 266.351 146.824 265.649 147.285C264.947 147.724 264.398 148.338 264.003 149.129C263.608 149.897 263.41 150.785 263.41 151.795C263.41 152.804 263.608 153.704 264.003 154.494C264.42 155.262 264.98 155.877 265.682 156.338C266.406 156.776 267.218 156.996 268.118 156.996C269.039 156.996 269.862 156.766 270.587 156.305C271.311 155.822 271.848 155.174 272.2 154.362L275.623 155.679C274.987 157.172 274.01 158.335 272.693 159.169C271.399 160.002 269.928 160.419 268.282 160.419ZM278.156 160.024V136.982H281.843V160.024H278.156ZM285.837 160.024L285.87 143.565H289.524L289.491 160.024H285.837ZM287.68 140.438C287.088 140.438 286.572 140.23 286.133 139.813C285.716 139.374 285.508 138.858 285.508 138.266C285.508 137.673 285.716 137.168 286.133 136.751C286.572 136.334 287.088 136.126 287.68 136.126C288.273 136.126 288.777 136.334 289.194 136.751C289.633 137.168 289.853 137.673 289.853 138.266C289.853 138.858 289.633 139.374 289.194 139.813C288.777 140.23 288.273 140.438 287.68 140.438ZM300.847 160.419C299.245 160.419 297.819 160.057 296.568 159.333C295.339 158.587 294.363 157.567 293.638 156.272C292.936 154.977 292.585 153.485 292.585 151.795C292.585 150.105 292.947 148.613 293.671 147.318C294.395 146.023 295.383 145.014 296.634 144.29C297.907 143.543 299.355 143.17 300.979 143.17C302.449 143.17 303.766 143.554 304.929 144.322C306.114 145.069 307.058 146.155 307.76 147.581C308.462 149.008 308.814 150.709 308.814 152.684H305.094C305.094 151.257 304.918 150.083 304.567 149.161C304.238 148.24 303.755 147.559 303.119 147.121C302.504 146.66 301.747 146.429 300.847 146.429C299.904 146.429 299.092 146.638 298.411 147.055C297.731 147.472 297.215 148.086 296.864 148.898C296.513 149.688 296.338 150.687 296.338 151.894C296.338 152.969 296.546 153.891 296.963 154.659C297.402 155.427 297.984 156.019 298.708 156.436C299.454 156.831 300.277 157.029 301.177 157.029C302.164 157.029 302.976 156.809 303.613 156.37C304.249 155.91 304.743 155.328 305.094 154.626L308.484 156.074C308.024 156.952 307.431 157.72 306.707 158.379C306.005 159.037 305.16 159.542 304.172 159.893C303.207 160.244 302.098 160.419 300.847 160.419ZM295.021 152.684V149.754H306.871V152.684H295.021ZM311.308 160.024V143.565H314.765L314.995 146.594V160.024H311.308ZM322.467 160.024V151.597L326.154 150.61V160.024H322.467ZM322.467 151.597C322.467 150.281 322.314 149.271 322.007 148.569C321.721 147.845 321.304 147.34 320.756 147.055C320.229 146.769 319.604 146.627 318.879 146.627C317.65 146.605 316.696 147.011 316.015 147.845C315.335 148.679 314.995 149.875 314.995 151.433H313.612C313.612 149.699 313.865 148.218 314.37 146.989C314.874 145.738 315.598 144.794 316.542 144.158C317.486 143.5 318.605 143.17 319.9 143.17C321.897 143.17 323.433 143.785 324.508 145.014C325.606 146.221 326.154 148.086 326.154 150.61L322.467 151.597ZM336.11 160.419C334.377 160.419 333.049 159.991 332.127 159.136C331.228 158.258 330.778 157.007 330.778 155.383V138.43H334.432V154.692C334.432 155.46 334.607 156.041 334.958 156.436C335.331 156.831 335.869 157.029 336.571 157.029C336.791 157.029 337.032 156.985 337.295 156.897C337.559 156.809 337.855 156.645 338.184 156.403L339.534 159.201C338.963 159.596 338.393 159.893 337.822 160.09C337.252 160.31 336.681 160.419 336.11 160.419ZM328.045 146.725V143.565H338.876V146.725H328.045ZM348.145 160.419C347.047 160.419 346.038 160.255 345.116 159.926C344.194 159.596 343.404 159.136 342.746 158.543C342.088 157.929 341.583 157.215 341.232 156.403L344.425 154.988C344.754 155.602 345.237 156.118 345.873 156.535C346.532 156.952 347.256 157.161 348.046 157.161C348.902 157.161 349.582 157.018 350.087 156.733C350.613 156.425 350.877 156.008 350.877 155.482C350.877 154.977 350.679 154.593 350.284 154.33C349.889 154.044 349.33 153.814 348.605 153.638L347.058 153.21C345.5 152.815 344.282 152.19 343.404 151.334C342.527 150.456 342.088 149.458 342.088 148.338C342.088 146.693 342.614 145.42 343.668 144.52C344.743 143.62 346.279 143.17 348.276 143.17C349.286 143.17 350.207 143.324 351.041 143.631C351.897 143.916 352.632 144.333 353.247 144.882C353.861 145.409 354.289 146.034 354.531 146.758L351.469 148.141C351.25 147.592 350.833 147.175 350.218 146.89C349.604 146.583 348.924 146.429 348.178 146.429C347.431 146.429 346.85 146.594 346.433 146.923C346.016 147.23 345.807 147.669 345.807 148.24C345.807 148.569 345.994 148.876 346.367 149.161C346.74 149.425 347.278 149.644 347.98 149.82L349.922 150.281C350.997 150.544 351.875 150.961 352.556 151.532C353.236 152.08 353.741 152.706 354.07 153.408C354.399 154.088 354.564 154.779 354.564 155.482C354.564 156.469 354.278 157.336 353.708 158.082C353.159 158.828 352.402 159.41 351.436 159.827C350.471 160.222 349.374 160.419 348.145 160.419Z" fill="white"/>
<rect x="70" y="222.267" width="257.774" height="77.0489" rx="38.5244" fill="#1385EA"/>
<path d="M140.902 272.291L140.737 269.197V263.831C140.737 262.712 140.617 261.779 140.375 261.033C140.134 260.287 139.75 259.716 139.223 259.321C138.718 258.926 138.049 258.729 137.215 258.729C136.447 258.729 135.767 258.893 135.174 259.223C134.582 259.552 134.088 260.056 133.693 260.737L130.335 259.552C130.708 258.827 131.191 258.147 131.784 257.511C132.376 256.874 133.122 256.37 134.022 255.997C134.944 255.623 136.03 255.437 137.281 255.437C138.883 255.437 140.211 255.733 141.264 256.326C142.339 256.918 143.14 257.796 143.667 258.959C144.194 260.122 144.457 261.56 144.457 263.271L144.358 272.291H140.902ZM136.227 272.686C134.252 272.686 132.716 272.247 131.619 271.369C130.544 270.491 130.006 269.252 130.006 267.65C130.006 265.938 130.577 264.632 131.718 263.732C132.881 262.833 134.494 262.383 136.557 262.383H140.968V265.214H137.742C136.271 265.214 135.24 265.422 134.647 265.839C134.055 266.234 133.759 266.805 133.759 267.551C133.759 268.187 134.011 268.692 134.516 269.065C135.042 269.416 135.767 269.592 136.688 269.592C137.5 269.592 138.203 269.405 138.795 269.032C139.41 268.637 139.881 268.132 140.211 267.518C140.562 266.881 140.737 266.201 140.737 265.477H142.087C142.087 267.715 141.604 269.482 140.638 270.777C139.695 272.05 138.224 272.686 136.227 272.686ZM147.861 272.291V255.832H151.318L151.548 258.86V272.291H147.861ZM159.02 272.291V263.864L162.707 262.876V272.291H159.02ZM159.02 263.864C159.02 262.547 158.867 261.538 158.56 260.836C158.274 260.111 157.857 259.607 157.309 259.321C156.782 259.036 156.157 258.893 155.432 258.893C154.203 258.871 153.249 259.277 152.568 260.111C151.888 260.945 151.548 262.141 151.548 263.699H150.165C150.165 261.966 150.418 260.484 150.923 259.255C151.427 258.005 152.152 257.061 153.095 256.424C154.039 255.766 155.158 255.437 156.453 255.437C158.45 255.437 159.986 256.051 161.061 257.28C162.159 258.487 162.707 260.353 162.707 262.876L159.02 263.864ZM177.996 272.291L177.832 269.23V249.248H181.486V272.291H177.996ZM172.631 272.686C171.138 272.686 169.833 272.335 168.713 271.633C167.616 270.908 166.749 269.899 166.113 268.604C165.498 267.309 165.191 265.795 165.191 264.061C165.191 262.306 165.498 260.792 166.113 259.519C166.749 258.224 167.616 257.225 168.713 256.523C169.833 255.799 171.138 255.437 172.631 255.437C174.013 255.437 175.198 255.799 176.186 256.523C177.195 257.225 177.963 258.224 178.49 259.519C179.017 260.792 179.28 262.306 179.28 264.061C179.28 265.795 179.017 267.309 178.49 268.604C177.963 269.899 177.195 270.908 176.186 271.633C175.198 272.335 174.013 272.686 172.631 272.686ZM173.552 269.328C174.386 269.328 175.121 269.109 175.758 268.67C176.416 268.209 176.921 267.584 177.272 266.794C177.645 266.004 177.832 265.093 177.832 264.061C177.832 263.03 177.645 262.119 177.272 261.329C176.921 260.539 176.416 259.925 175.758 259.486C175.121 259.047 174.375 258.827 173.519 258.827C172.642 258.827 171.862 259.047 171.182 259.486C170.502 259.925 169.964 260.539 169.569 261.329C169.196 262.119 168.999 263.03 168.977 264.061C168.999 265.093 169.196 266.004 169.569 266.794C169.964 267.584 170.502 268.209 171.182 268.67C171.884 269.109 172.674 269.328 173.552 269.328ZM192.843 272.291V255.832H196.3L196.53 258.86V272.291H192.843ZM204.003 272.291V263.864L207.689 262.876V272.291H204.003ZM215.195 272.291V263.864L218.849 262.876V272.291H215.195ZM204.003 263.864C204.003 262.547 203.849 261.538 203.542 260.836C203.256 260.111 202.839 259.607 202.291 259.321C201.764 259.036 201.139 258.893 200.415 258.893C199.186 258.871 198.231 259.277 197.551 260.111C196.87 260.945 196.53 262.141 196.53 263.699H195.148C195.148 261.966 195.4 260.484 195.905 259.255C196.409 258.005 197.134 257.061 198.077 256.424C199.021 255.766 200.14 255.437 201.435 255.437C203.432 255.437 204.968 256.051 206.044 257.28C207.141 258.487 207.689 260.353 207.689 262.876L204.003 263.864ZM215.195 263.864C215.195 262.547 215.041 261.538 214.734 260.836C214.427 260.111 213.999 259.607 213.45 259.321C212.923 259.036 212.309 258.893 211.607 258.893C210.356 258.871 209.39 259.277 208.71 260.111C208.03 260.945 207.689 262.141 207.689 263.699H206.307C206.307 261.966 206.559 260.484 207.064 259.255C207.569 258.005 208.293 257.061 209.237 256.424C210.18 255.766 211.299 255.437 212.594 255.437C214.591 255.437 216.138 256.051 217.236 257.28C218.333 258.487 218.871 260.353 218.849 262.876L215.195 263.864ZM229.853 272.686C228.207 272.686 226.737 272.324 225.442 271.6C224.169 270.854 223.171 269.833 222.447 268.538C221.722 267.244 221.36 265.751 221.36 264.061C221.36 262.372 221.711 260.879 222.414 259.585C223.138 258.29 224.136 257.28 225.409 256.556C226.682 255.81 228.141 255.437 229.787 255.437C231.433 255.437 232.893 255.81 234.165 256.556C235.438 257.28 236.426 258.29 237.128 259.585C237.852 260.879 238.214 262.372 238.214 264.061C238.214 265.751 237.863 267.244 237.161 268.538C236.459 269.833 235.471 270.854 234.198 271.6C232.925 272.324 231.477 272.686 229.853 272.686ZM229.853 269.295C230.753 269.295 231.554 269.076 232.256 268.637C232.958 268.176 233.507 267.562 233.902 266.794C234.297 266.004 234.495 265.093 234.495 264.061C234.495 263.03 234.286 262.13 233.869 261.362C233.474 260.572 232.925 259.958 232.223 259.519C231.521 259.058 230.709 258.827 229.787 258.827C228.866 258.827 228.054 259.047 227.351 259.486C226.649 259.925 226.1 260.539 225.705 261.329C225.31 262.119 225.113 263.03 225.113 264.061C225.113 265.093 225.31 266.004 225.705 266.794C226.122 267.562 226.682 268.176 227.384 268.637C228.108 269.076 228.931 269.295 229.853 269.295ZM243.516 263.535C243.516 261.757 243.856 260.298 244.536 259.157C245.217 258.016 246.095 257.171 247.17 256.622C248.267 256.051 249.408 255.766 250.593 255.766V259.288C249.584 259.288 248.629 259.431 247.729 259.716C246.852 259.98 246.138 260.419 245.59 261.033C245.041 261.647 244.767 262.459 244.767 263.469L243.516 263.535ZM241.08 272.291V255.832H244.767V272.291H241.08ZM260.05 272.686C258.448 272.686 257.022 272.324 255.771 271.6C254.542 270.854 253.565 269.833 252.841 268.538C252.139 267.244 251.788 265.751 251.788 264.061C251.788 262.372 252.15 260.879 252.874 259.585C253.598 258.29 254.586 257.28 255.837 256.556C257.109 255.81 258.558 255.437 260.182 255.437C261.652 255.437 262.969 255.821 264.132 256.589C265.317 257.335 266.261 258.422 266.963 259.848C267.665 261.274 268.016 262.975 268.016 264.95H264.297C264.297 263.524 264.121 262.35 263.77 261.428C263.441 260.506 262.958 259.826 262.321 259.387C261.707 258.926 260.95 258.696 260.05 258.696C259.106 258.696 258.294 258.904 257.614 259.321C256.934 259.738 256.418 260.353 256.067 261.165C255.716 261.955 255.54 262.953 255.54 264.16C255.54 265.236 255.749 266.157 256.166 266.925C256.605 267.693 257.186 268.286 257.91 268.703C258.657 269.098 259.48 269.295 260.379 269.295C261.367 269.295 262.179 269.076 262.815 268.637C263.452 268.176 263.945 267.595 264.297 266.892L267.687 268.341C267.226 269.219 266.634 269.987 265.91 270.645C265.207 271.303 264.362 271.808 263.375 272.159C262.409 272.51 261.301 272.686 260.05 272.686ZM254.224 264.95V262.021H266.074V264.95H254.224Z" fill="white"/>
</svg>
